<?xml version="1.0" encoding="UTF-8" standalone="no"?>
<svg
   x="41.5px"
   y="196.61px"
   width="106.78"
   height="106.78"
   preserveAspectRatio="none"
   version="1.1"
   viewBox="251 133.26 97.305514 97.308"
   id="svg6"
   sodipodi:docname="favicon.svg"
   inkscape:version="1.4 (86a8ad7, 2024-10-11)"
   xmlns:inkscape="http://www.inkscape.org/namespaces/inkscape"
   xmlns:sodipodi="http://sodipodi.sourceforge.net/DTD/sodipodi-0.dtd"
   xmlns="http://www.w3.org/2000/svg"
   xmlns:svg="http://www.w3.org/2000/svg">
  <defs
     id="defs6" />
  <sodipodi:namedview
     id="namedview6"
     pagecolor="#505050"
     bordercolor="#eeeeee"
     borderopacity="1"
     inkscape:showpageshadow="0"
     inkscape:pageopacity="0"
     inkscape:pagecheckerboard="0"
     inkscape:deskcolor="#505050"
     inkscape:zoom="2.61"
     inkscape:cx="208.42912"
     inkscape:cy="84.099617"
     inkscape:window-width="1920"
     inkscape:window-height="974"
     inkscape:window-x="-11"
     inkscape:window-y="-11"
     inkscape:window-maximized="1"
     inkscape:current-layer="svg6" />
  <style
     id="style1">.aD-YM9nyY4color4efe2d3d-6df5-44c5-b1c4-f96c10570d3f {fill:#353535;fill-opacity:1;}.aD6z1nYkhcolor4efe2d3d-6df5-44c5-b1c4-f96c10570d3f {fill:#353535;fill-opacity:1;}.aIptOCySncolors-04efe2d3d-6df5-44c5-b1c4-f96c10570d3f {fill:#353535;fill-opacity:1;}.icon24efe2d3d-6df5-44c5-b1c4-f96c10570d3f {fill:#E35B34;fill-opacity:1;}.icon3-str4efe2d3d-6df5-44c5-b1c4-f96c10570d3f {stroke:#E3D454;stroke-opacity:1;}.icon34efe2d3d-6df5-44c5-b1c4-f96c10570d3f {fill:#E3D454;fill-opacity:1;}</style>
  <g
     transform="translate(139.30924,103.34985)"
     id="g2">
    <svg
       x="251"
       y="133.25999"
       width="97.307999"
       height="97.307999"
       preserveAspectRatio="none"
       version="1.1"
       viewBox="11.75 11.75 76.5 76.5"
       id="svg1">
      <g
         class="aIptOCySncolors-04efe2d3d-6df5-44c5-b1c4-f96c10570d3f"
         id="g1">
        <path
           d="m -27.019844,-69.499881 h -65 c -3.1719,0 -5.75,2.5781 -5.75,5.75 v 65 c 0,3.1719 2.5781,5.75 5.75,5.75 h 65 c 3.1719,0 5.75,-2.5781 5.75,-5.75 v -65 c 0,-3.1719 -2.5781,-5.75 -5.75,-5.75 z m -7.7266,65.188 -4.7266,-6.1172 4.543,-8.0547 5.3438,2.9531 6.5586,7.6914 c 0.07422,0.08594 0.16016,0.14844 0.25781,0.19531 v 6.3438 z m -11.066,9.8125 c -0.03125,-0.06641 -0.0625,-0.13281 -0.11328,-0.1875 l -7.3242,-8.0977 4.5156,-5.1836 8.0547,-1.5703 4.6484,6.0195 -3.4023,9.0195 h -6.3828 z m -44.938,-68.844 2.6797,6.4023 -3.7266,11.109 -4.4727,-0.39062 v -15.34 l 5.5195,-1.7852 z m 11.637,-4.6562 1.2422,3.7188 -3.2891,6.5625 h -5.6133 l -2.7344,-6.5391 1.668,-3.7422 z m 29.816,0 1.5781,4.6641 -4.9297,6.1641 -6.9297,1.3828 -4.6055,-6.6797 2.2891,-5.5312 z m 20.066,50.953 -5.3008,-2.9297 -1.2422,-7.9453 7.2188,-8.043 5.7852,0.63672 v 12.215 c -0.07031,0.03125 -0.14453,0.07031 -0.20312,0.12891 z m -11.625,6.0156 -7.8438,1.5273 -4.0664,-8.8086 3.4336,-10.391 12.105,1.2344 1.2266,7.8242 -4.8555,8.6055 z m -13.867,7.6562 -7.3242,3.84380005 -8.918,-5.40230005 -0.0625,-9.5352 4.3164,-4.3242 12.641,1.2305 4.0547,8.7812 z m -27.43,-18.133 -7.1484,-6.3828 5.0703,-6.5117 6.207,-2.8164 10.094,17.52 -3.9766,3.9844 z m -14.117,-23.203 4.5664,0.39844 6.0742,9.2695 -5.0586,6.4961 h -5.582 z m 9.5391,-11.508 h 5.5859 l 4.0234,7.4961 -1.2812,10.027 -6.0273,2.7383 -6.0156,-9.1758 3.7188,-11.086 z m 10.098,-7.1797 11.172,1.7148 4.5586,6.6094 -4.4492,3.9297 -10.578,1.4609 -3.918,-7.3008 3.2188,-6.418 z m 17.074,9.1367 7.0195,-1.4023 6.9648,9.0078 -6.2617,8.4609 -8.3398,-2.7305 -3.9492,-9.3047 4.5664,-4.0352 z m 15.316,8.3242 9.457,-0.64062 5.0234,9.707 -7.1211,7.9336 -12.355,-1.2617 -1.5156,-6.9375 z m -9.8477,26.867 -12.441,-1.2109 -4.7617,-8.2617 10.77,-10.914 8.3281,2.7266 1.5703,7.1836 -3.4648,10.48 z m -21.586,-29.129 10.18,-1.4062 3.8711,9.125 -10.449,10.594 -4.8633,-8.4453 1.2617,-9.8633 z m 52.906,27.09 v 11.266 l -5.3086,-6.2266 z m 0,-15.727 -5.6055,-0.61719 -5.1758,-10 2.0352,-8.3398 8.7461,0.49219 z m -12.172,-11.234 -9.3477,0.63281 -6.9883,-9.043 4.7383,-5.9258 9.2031,0.75391 4.418,5.2656 -2.0273,8.3164 z m -2.3906,-15.086 -8.9883,-0.73438 -1.3906,-4.1055 h 13.68 l -3.3008,4.8438 z m -28.168,-0.04687 -10.992,-1.6875 -1.0391,-3.1055 h 14.016 l -1.9844,4.7969 z m -30.77,36.156 h 5.6602 l 7.0547,6.3008 -8.2227,12.824 -4.4922,1.8828 z m 13.941,7.1641 9.8047,5.543 0.0625,9.4102 -9.6211,5.90230005 -8.2305,-8.39060005 7.9922,-12.465 z m 0.80469,22.27 9.8164,-6.0195 8.6719,5.2539 -1.875,3.8672 c 0,0 0,0.0078 -0.0039,0.01563 h -17.164 l 0.55859,-3.1133 z m 20.027,-0.51562 7.0781,-3.7148 6.6406,7.3438 h -15.477 z m 38.727,-65.621 v 6.9453 l -8.957,-0.50391 -4.293,-5.1133 3.7266,-5.4727 c 0.02344,-0.03125 0.02734,-0.07031 0.04688,-0.10547 h 5.2266 c 2.3438,0 4.25,1.9062 4.25,4.25 z m -69.25,-4.25 h 2.543 l -1.3945,3.1211 -5.3984,1.7461 v -0.61719 c 0,-2.3438 1.9062,-4.25 4.25,-4.25 z m -4.25,69.25 v -5.6641 l 4.8164,-2.0195 8.4414,8.6055 -0.59766,3.3281 h -8.4141 c -2.3438,0 -4.25,-1.9062 -4.25,-4.25 z m 69.25,4.25 h -10.809 l 3.1133,-8.2578 11.945,3.00390005 V 1.250029 c 0,2.3438 -1.9062,4.25 -4.25,4.25 z"
           id="path1" />
      </g>
    </svg>
  </g>
</svg>
