<?xml version="1.0" encoding="UTF-8"?>
<svg x="41.5px" y="196.61px" width="417" height="106.78" preserveAspectRatio="none" version="1.1" viewBox="251 133.26 380 97.308" xmlns="http://www.w3.org/2000/svg">
 <style>.aD-YM9nyY4color4efe2d3d-6df5-44c5-b1c4-f96c10570d3f {fill:#353535;fill-opacity:1;}.aD6z1nYkhcolor4efe2d3d-6df5-44c5-b1c4-f96c10570d3f {fill:#353535;fill-opacity:1;}.aIptOCySncolors-04efe2d3d-6df5-44c5-b1c4-f96c10570d3f {fill:#353535;fill-opacity:1;}.icon24efe2d3d-6df5-44c5-b1c4-f96c10570d3f {fill:#E35B34;fill-opacity:1;}.icon3-str4efe2d3d-6df5-44c5-b1c4-f96c10570d3f {stroke:#E3D454;stroke-opacity:1;}.icon34efe2d3d-6df5-44c5-b1c4-f96c10570d3f {fill:#E3D454;fill-opacity:1;}</style>
 <g transform="rotate(0 251 133.26)">
  <svg x="251" y="133.26" width="97.308" height="97.308" preserveAspectRatio="none" version="1.1" viewBox="11.75 11.75 76.5 76.5">
   <g class="aIptOCySncolors-04efe2d3d-6df5-44c5-b1c4-f96c10570d3f">
    <path d="m82.5 11.75h-65c-3.1719 0-5.75 2.5781-5.75 5.75v65c0 3.1719 2.5781 5.75 5.75 5.75h65c3.1719 0 5.75-2.5781 5.75-5.75v-65c0-3.1719-2.5781-5.75-5.75-5.75zm-7.7266 65.188-4.7266-6.1172 4.543-8.0547 5.3438 2.9531 6.5586 7.6914c0.074218 0.085938 0.16016 0.14844 0.25781 0.19531v6.3438zm-11.066 9.8125c-0.03125-0.066406-0.0625-0.13281-0.11328-0.1875l-7.3242-8.0977 4.5156-5.1836 8.0547-1.5703 4.6484 6.0195-3.4023 9.0195h-6.3828zm-44.938-68.844 2.6797 6.4023-3.7266 11.109-4.4727-0.39062v-15.34l5.5195-1.7852zm11.637-4.6562 1.2422 3.7188-3.2891 6.5625h-5.6133l-2.7344-6.5391 1.668-3.7422zm29.816 0 1.5781 4.6641-4.9297 6.1641-6.9297 1.3828-4.6055-6.6797 2.2891-5.5312zm20.066 50.953-5.3008-2.9297-1.2422-7.9453 7.2188-8.043 5.7852 0.63672v12.215c-0.070312 0.03125-0.14453 0.070312-0.20312 0.12891zm-11.625 6.0156-7.8438 1.5273-4.0664-8.8086 3.4336-10.391 12.105 1.2344 1.2266 7.8242-4.8555 8.6055zm-13.867 7.6562-7.3242 3.8438-8.918-5.4023-0.0625-9.5352 4.3164-4.3242 12.641 1.2305 4.0547 8.7812zm-27.43-18.133-7.1484-6.3828 5.0703-6.5117 6.207-2.8164 10.094 17.52-3.9766 3.9844zm-14.117-23.203 4.5664 0.39844 6.0742 9.2695-5.0586 6.4961h-5.582zm9.5391-11.508h5.5859l4.0234 7.4961-1.2812 10.027-6.0273 2.7383-6.0156-9.1758 3.7188-11.086zm10.098-7.1797 11.172 1.7148 4.5586 6.6094-4.4492 3.9297-10.578 1.4609-3.918-7.3008 3.2188-6.418zm17.074 9.1367 7.0195-1.4023 6.9648 9.0078-6.2617 8.4609-8.3398-2.7305-3.9492-9.3047 4.5664-4.0352zm15.316 8.3242 9.457-0.64062 5.0234 9.707-7.1211 7.9336-12.355-1.2617-1.5156-6.9375zm-9.8477 26.867-12.441-1.2109-4.7617-8.2617 10.77-10.914 8.3281 2.7266 1.5703 7.1836-3.4648 10.48zm-21.586-29.129 10.18-1.4062 3.8711 9.125-10.449 10.594-4.8633-8.4453 1.2617-9.8633zm52.906 27.09v11.266l-5.3086-6.2266zm0-15.727-5.6055-0.61719-5.1758-10 2.0352-8.3398 8.7461 0.49219zm-12.172-11.234-9.3477 0.63281-6.9883-9.043 4.7383-5.9258 9.2031 0.75391 4.418 5.2656-2.0273 8.3164zm-2.3906-15.086-8.9883-0.73438-1.3906-4.1055h13.68l-3.3008 4.8438zm-28.168-0.046875-10.992-1.6875-1.0391-3.1055h14.016l-1.9844 4.7969zm-30.77 36.156h5.6602l7.0547 6.3008-8.2227 12.824-4.4922 1.8828zm13.941 7.1641 9.8047 5.543 0.0625 9.4102-9.6211 5.9023-8.2305-8.3906 7.9922-12.465zm0.80469 22.27 9.8164-6.0195 8.6719 5.2539-1.875 3.8672s0 0.007813-0.003906 0.015625h-17.164l0.55859-3.1133zm20.027-0.51562 7.0781-3.7148 6.6406 7.3438h-15.477zm38.727-65.621v6.9453l-8.957-0.50391-4.293-5.1133 3.7266-5.4727c0.023438-0.03125 0.027344-0.070313 0.046876-0.10547h5.2266c2.3438 0 4.25 1.9062 4.25 4.25zm-69.25-4.25h2.543l-1.3945 3.1211-5.3984 1.7461v-0.61719c0-2.3438 1.9062-4.25 4.25-4.25zm-4.25 69.25v-5.6641l4.8164-2.0195 8.4414 8.6055-0.59766 3.3281h-8.4141c-2.3438 0-4.25-1.9062-4.25-4.25zm69.25 4.25h-10.809l3.1133-8.2578 11.945 3.0039v1.0039c0 2.3438-1.9062 4.25-4.25 4.25z"/>
   </g>
  </svg>
 </g>
 <g transform="rotate(0 369.16 133.26)">
  <svg x="369.16" y="133.26" width="261.84" height="69.506" preserveAspectRatio="none" version="1.1" viewBox="-0.36 -28.48 259.76 68.96000000000001">
   <g class="aD6z1nYkhcolor4efe2d3d-6df5-44c5-b1c4-f96c10570d3f">
    <path d="m24.24 0-2.48-6h-13l-2.48 6h-6.64l12.48-28h6.4l12.52 28h-6.8zm-13.4-10.92h8.88l-4.44-10.72-4.44 10.72zm23.12 10.92v-28h12.72q4.56 0 8.06 1.74t5.44 4.9 1.94 7.36-1.94 7.36-5.44 4.9-8.06 1.74h-12.72zm6.48-5.32h5.92q4.2 0 6.7-2.34t2.5-6.34-2.5-6.34-6.7-2.34h-5.92v17.36zm40.12 5.8q-4.36 0-7.86-1.88t-5.48-5.18-1.98-7.42 1.98-7.42 5.48-5.18 7.86-1.88 7.84 1.88 5.48 5.18 2 7.42-2 7.42-5.48 5.18-7.84 1.88zm0-5.52q2.48 0 4.48-1.14t3.14-3.18 1.14-4.64-1.14-4.64-3.14-3.18-4.48-1.14-4.48 1.14-3.14 3.18-1.14 4.64 1.14 4.64 3.14 3.18 4.48 1.14zm47.6 4.6 2.88 3.44q-1.36 1.68-3.3 2.56t-4.26 0.88q-3.12 0-5.64-1.34t-5.76-4.74q-3.8-0.48-6.78-2.44t-4.64-5.06-1.66-6.86q0-4.12 1.98-7.42t5.48-5.18 7.86-1.88 7.84 1.88 5.48 5.18 2 7.42q0 4.88-2.74 8.56t-7.26 5.12q1 1.04 1.94 1.5t2.02 0.46q2.6 0 4.56-2.08zm-22.6-13.56q0 2.6 1.14 4.64t3.14 3.18 4.48 1.14 4.48-1.14 3.14-3.18 1.14-4.64-1.14-4.64-3.14-3.18-4.48-1.14-4.48 1.14-3.14 3.18-1.14 4.64zm41.4 14.48q-6 0-9.34-3.32t-3.34-9.48v-15.68h6.48v15.44q0 7.52 6.24 7.52 3.04 0 4.64-1.82t1.6-5.7v-15.44h6.4v15.68q0 6.16-3.34 9.48t-9.34 3.32zm19.08-0.48v-28h6.48v28h-6.48zm32.4-28h6.4v28h-5.32l-13.96-17v17h-6.4v-28h5.36l13.92 17v-17zm19.48 22.8h15.24v5.2h-21.68v-28h21.16v5.2h-14.72v6.08h13v5.04h-13v6.48zm29.6 5.68q-3.32 0-6.42-0.9t-4.98-2.34l2.2-4.88q1.8 1.32 4.28 2.12t4.96 0.8q2.76 0 4.08-0.82t1.32-2.18q0-1-0.78-1.66t-2-1.06-3.3-0.88q-3.2-0.76-5.24-1.52t-3.5-2.44-1.46-4.48q0-2.44 1.32-4.42t3.98-3.14 6.5-1.16q2.68 0 5.24 0.64t4.48 1.84l-2 4.92q-3.88-2.2-7.76-2.2-2.72 0-4.02 0.88t-1.3 2.32 1.5 2.14 4.58 1.38q3.2 0.76 5.24 1.52t3.5 2.4 1.46 4.44q0 2.4-1.34 4.38t-4.02 3.14-6.52 1.16zm-223.28 39.52-2.48-6h-13l-2.48 6h-6.64l12.48-28h6.4l12.52 28h-6.8zm-13.4-10.92h8.88l-4.44-10.72-4.44 10.72zm42.4-17.08h6.4v28h-5.32l-13.96-17v17h-6.4v-28h5.36l13.92 17v-17zm22.24 28.48q-3.32 0-6.42-0.9t-4.98-2.34l2.2-4.88q1.8 1.32 4.28 2.12t4.96 0.8q2.76 0 4.08-0.82t1.32-2.18q0-1-0.78-1.66t-2-1.06-3.3-0.88q-3.2-0.76-5.24-1.52t-3.5-2.44-1.46-4.48q0-2.44 1.32-4.42t3.98-3.14 6.5-1.16q2.68 0 5.24 0.64t4.48 1.84l-2 4.92q-3.88-2.2-7.76-2.2-2.72 0-4.02 0.88t-1.3 2.32 1.5 2.14 4.58 1.38q3.2 0.76 5.24 1.52t3.5 2.4 1.46 4.44q0 2.4-1.34 4.38t-4.02 3.14-6.52 1.16zm22.76-5.68h15.24v5.2h-21.68v-28h21.16v5.2h-14.72v6.08h13v5.04h-13v6.48zm20.4 5.2v-28h6.48v22.72h14.04v5.28h-20.52zm55.72 0h-6.08l-0.04-16.8-8.24 13.84h-2.92l-8.2-13.48v16.44h-6.08v-28h5.36l10.48 17.4 10.32-17.4h5.32l0.08 28zm20.2 0.48q-4.36 0-7.86-1.88t-5.48-5.18-1.98-7.42 1.98-7.42 5.48-5.18 7.86-1.88 7.84 1.88 5.48 5.18 2 7.42-2 7.42-5.48 5.18-7.84 1.88zm0-5.52q2.48 0 4.48-1.14t3.14-3.18 1.14-4.64-1.14-4.64-3.14-3.18-4.48-1.14-4.48 1.14-3.14 3.18-1.14 4.64 1.14 4.64 3.14 3.18 4.48 1.14z"/>
   </g>
  </svg>
 </g>
 <g transform="rotate(0 369.16 216.67)">
  <svg x="369.16" y="216.67" width="189.24" height="13.901" preserveAspectRatio="none" version="1.1" viewBox="0.2 -29.68 408.48 30">
   <g class="aD-YM9nyY4color4efe2d3d-6df5-44c5-b1c4-f96c10570d3f">
    <path d="m12.64-16.24q4.12 0.4 6.28 2.54t2.16 5.46q0 2.4-1.2 4.34t-3.58 3.08-5.82 1.14q-3 0-5.76-0.9t-4.52-2.5l1.84-3.16q1.44 1.36 3.68 2.18t4.76 0.82q3.12 0 4.86-1.32t1.74-3.64-1.72-3.6-5.2-1.28h-2.24v-2.8l7.04-8.64h-13.48v-3.48h18.48v2.72l-7.32 9.04zm24.8 16.56q-3.32 0-5.9-1.7t-4.06-4.94-1.48-7.68 1.48-7.68 4.06-4.94 5.9-1.7q3.28 0 5.86 1.7t4.06 4.94 1.48 7.68-1.48 7.68-4.06 4.94-5.86 1.7zm0-3.56q3.36 0 5.38-2.76t2.02-8-2.02-8-5.38-2.76q-3.4 0-5.42 2.76t-2.02 8 2.02 8 5.42 2.76zm37.84-18.16q4.4 0 6.74 2.16t2.34 6.44v12.8h-3.64v-2.8q-0.96 1.48-2.74 2.26t-4.22 0.78q-3.56 0-5.7-1.72t-2.14-4.52 2.04-4.5 6.48-1.7h6.08v-0.76q0-2.48-1.44-3.8t-4.24-1.32q-1.88 0-3.68 0.62t-3.04 1.66l-1.6-2.88q1.64-1.32 3.92-2.02t4.84-0.7zm-0.88 18.68q2.2 0 3.8-0.98t2.32-2.78v-2.96h-5.92q-4.88 0-4.88 3.28 0 1.6 1.24 2.52t3.44 0.92zm29.6-18.68q4.04 0 6.42 2.34t2.38 6.86v12.2h-3.84v-11.76q0-3.08-1.48-4.64t-4.24-1.56q-3.12 0-4.92 1.82t-1.8 5.22v10.92h-3.84v-21.2h3.68v3.2q1.16-1.64 3.14-2.52t4.5-0.88zm1.56-3q-0.96 0-1.66-0.4t-1.74-1.2q-0.6-0.56-1.04-0.82t-0.88-0.26q-0.88 0-1.44 0.66t-0.6 1.82h-2.16q0.08-2.24 1.14-3.56t2.78-1.32q0.96 0 1.7 0.42t1.7 1.22q0.68 0.56 1.08 0.82t0.84 0.26q0.88 0 1.44-0.64t0.6-1.76h2.16q-0.08 2.16-1.14 3.46t-2.78 1.3zm24.76 24.64q-3.16 0-5.68-1.4t-3.94-3.86-1.42-5.58 1.42-5.58 3.94-3.84 5.68-1.38 5.66 1.38 3.92 3.84 1.42 5.58-1.42 5.58-3.92 3.86-5.66 1.4zm0-3.36q2.04 0 3.66-0.94t2.54-2.64 0.92-3.9-0.92-3.9-2.54-2.62-3.66-0.92-3.66 0.92-2.56 2.62-0.94 3.9 0.94 3.9 2.56 2.64 3.66 0.94zm23.6 3.36q-2.6 0-5-0.7t-3.76-1.78l1.6-3.04q1.4 1 3.4 1.6t4.04 0.6q5.04 0 5.04-2.88 0-0.96-0.68-1.52t-1.7-0.82-2.9-0.58q-2.56-0.4-4.18-0.92t-2.78-1.76-1.16-3.48q0-2.88 2.4-4.62t6.44-1.74q2.12 0 4.24 0.52t3.48 1.4l-1.64 3.04q-2.6-1.68-6.12-1.68-2.44 0-3.72 0.8t-1.28 2.12q0 1.04 0.72 1.64t1.78 0.88 2.98 0.64q2.56 0.44 4.14 0.94t2.7 1.7 1.12 3.36q0 2.88-2.46 4.58t-6.7 1.7zm46.28-10.72q0 0.44-0.08 1.16h-17.2q0.36 2.8 2.46 4.5t5.22 1.7q3.8 0 6.12-2.56l2.12 2.48q-1.44 1.68-3.58 2.56t-4.78 0.88q-3.36 0-5.96-1.38t-4.02-3.86-1.42-5.6q0-3.08 1.38-5.56t3.8-3.86 5.46-1.38 5.42 1.38 3.72 3.86 1.34 5.68zm-10.48-7.68q-2.76 0-4.62 1.68t-2.18 4.4h13.6q-0.32-2.68-2.18-4.38t-4.62-1.7zm28.32-3.24q4.04 0 6.42 2.34t2.38 6.86v12.2h-3.84v-11.76q0-3.08-1.48-4.64t-4.24-1.56q-3.12 0-4.92 1.82t-1.8 5.22v10.92h-3.84v-21.2h3.68v3.2q1.16-1.64 3.14-2.52t4.5-0.88zm48.24 10.92q0 0.44-0.08 1.16h-17.2q0.36 2.8 2.46 4.5t5.22 1.7q3.8 0 6.12-2.56l2.12 2.48q-1.44 1.68-3.58 2.56t-4.78 0.88q-3.36 0-5.96-1.38t-4.02-3.86-1.42-5.6q0-3.08 1.38-5.56t3.8-3.86 5.46-1.38 5.42 1.38 3.72 3.86 1.34 5.68zm-10.48-7.68q-2.76 0-4.62 1.68t-2.18 4.4h13.6q-0.32-2.68-2.18-4.38t-4.62-1.7zm17 18.16v-29.68h3.84v29.68h-3.84zm28-17.64q1-1.84 2.96-2.8t4.76-0.96v3.72q-0.32-0.04-0.88-0.04-3.12 0-4.9 1.86t-1.78 5.3v10.56h-3.84v-21.2h3.68v3.56zm29.84-3.56h3.84v21.2h-3.64v-3.2q-1.16 1.64-3.06 2.54t-4.14 0.9q-4.24 0-6.68-2.34t-2.44-6.9v-12.2h3.84v11.76q0 3.08 1.48 4.66t4.24 1.58q3.04 0 4.8-1.84t1.76-5.2v-10.96zm23.6-0.2q3.08 0 5.52 1.36t3.82 3.8 1.38 5.64-1.38 5.66-3.82 3.82-5.52 1.36q-2.36 0-4.32-0.92t-3.24-2.68v3.36h-3.68v-29.68h3.84v11.68q1.28-1.68 3.2-2.54t4.2-0.86zm-0.32 18.28q2.04 0 3.66-0.94t2.56-2.64 0.94-3.9-0.94-3.9-2.56-2.62-3.66-0.92q-2 0-3.64 0.92t-2.56 2.62-0.92 3.9 0.92 3.9 2.56 2.64 3.64 0.94zm21.24-14.52q1-1.84 2.96-2.8t4.76-0.96v3.72q-0.32-0.04-0.88-0.04-3.12 0-4.9 1.86t-1.78 5.3v10.56h-3.84v-21.2h3.68v3.56zm22.52 17.88q-3.16 0-5.68-1.4t-3.94-3.86-1.42-5.58 1.42-5.58 3.94-3.84 5.68-1.38 5.66 1.38 3.92 3.84 1.42 5.58-1.42 5.58-3.92 3.86-5.66 1.4zm0-3.36q2.04 0 3.66-0.94t2.54-2.64 0.92-3.9-0.92-3.9-2.54-2.62-3.66-0.92-3.66 0.92-2.56 2.62-0.94 3.9 0.94 3.9 2.56 2.64 3.66 0.94z"/>
   </g>
  </svg>
 </g>
</svg>
